<?xml version="1.0" encoding="UTF-8" standalone="no"?>
<!-- Created with Inkscape (http://www.inkscape.org/) -->

<svg
   width="38.201733mm"
   height="14.200222mm"
   viewBox="0 0 38.201733 14.200222"
   version="1.1"
   id="svg5"
   sodipodi:docname="portier_logo_feluxe.svg"
   inkscape:version="1.1 (c68e22c387, 2021-05-23)"
   xmlns:inkscape="http://www.inkscape.org/namespaces/inkscape"
   xmlns:sodipodi="http://sodipodi.sourceforge.net/DTD/sodipodi-0.dtd"
   xmlns="http://www.w3.org/2000/svg"
   xmlns:svg="http://www.w3.org/2000/svg">
  <sodipodi:namedview
     id="namedview7"
     pagecolor="#ffffff"
     bordercolor="#666666"
     borderopacity="1.0"
     inkscape:pageshadow="2"
     inkscape:pageopacity="0.0"
     inkscape:pagecheckerboard="0"
     inkscape:document-units="mm"
     showgrid="false"
     inkscape:zoom="2.8284271"
     inkscape:cx="-24.571961"
     inkscape:cy="30.405591"
     inkscape:window-width="1920"
     inkscape:window-height="966"
     inkscape:window-x="-1"
     inkscape:window-y="-1"
     inkscape:window-maximized="1"
     inkscape:current-layer="layer1"
     fit-margin-top="1"
     fit-margin-left="1"
     fit-margin-bottom="1"
     fit-margin-right="1" />
  <defs
     id="defs2">
    <rect
       x="99.03331"
       y="338.64758"
       width="569.58447"
       height="146.22203"
       id="rect11" />
  </defs>
  <g
     inkscape:label="Layer 1"
     inkscape:groupmode="layer"
     id="layer1"
     transform="translate(-22.456039,-88.474688)">
    <g
       aria-label="Portier"
       transform="scale(0.26458333)"
       id="text9"
       style="font-size:48px;line-height:125%;font-family:aakar;-inkscape-font-specification:aakar;letter-spacing:0px;word-spacing:0px;white-space:pre;shape-inside:url(#rect11);stroke-width:1px">
      <g
         id="g1088" />
      <path
         d="m 136.58008,355.18085 q 4.73437,0 7.64062,2.90625 2.90625,2.90625 2.90625,7.96875 0,4.03125 -2.53125,7.3125 -2.95312,3.84375 -7.875,3.84375 -4.5,0 -7.40625,-3.14062 -2.85937,-3.1875 -2.85937,-8.01563 0,-4.54687 2.67187,-7.59375 2.85938,-3.28125 7.45313,-3.28125 z m 0.79687,20.71875 q 2.20313,0 3.65625,-1.6875 1.875,-2.20312 1.875,-6.79687 0,-4.54688 -1.78125,-7.73438 -1.78125,-3.1875 -4.92187,-3.1875 -2.34375,0 -3.9375,1.92188 -1.59375,1.875 -1.59375,5.39062 0,4.07813 1.21875,7.3125 1.78125,4.78125 5.48437,4.78125 z"
         style="font-size:48px;line-height:125%;font-family:aakar;-inkscape-font-specification:aakar;letter-spacing:0px;word-spacing:0px;white-space:pre;shape-inside:url(#rect11);stroke-width:1px"
         id="path856" />
      <path
         d="M 151.98072,372.80585 V 361.0871 q 0,-1.82812 -0.51562,-2.4375 -0.32813,-0.375 -1.125,-0.375 -0.46875,0 -0.75,0.0469 -0.28125,0 -0.84375,0.14062 v -0.75 q 3.70312,-1.21875 6.9375,-2.53125 l 0.23437,0.0937 v 4.17188 q 1.6875,-2.4375 2.95313,-3.32813 1.3125,-0.9375 2.71875,-0.9375 2.53125,0 2.53125,2.53125 0,0.89063 -0.51563,1.5 -0.46875,0.5625 -1.26562,0.5625 -0.89063,0 -1.82813,-0.79687 -0.89062,-0.84375 -1.40625,-0.84375 -0.84375,0 -2.01562,1.35937 -1.17188,1.35938 -1.17188,2.48438 v 10.54687 q 0,2.20313 1.07813,2.95313 0.84375,0.5625 2.90625,0.5625 v 0.70312 h -11.25 v -0.70312 q 2.10937,-0.375 2.625,-0.79688 0.70312,-0.5625 0.70312,-2.4375 z"
         style="font-size:48px;line-height:125%;font-family:aakar;-inkscape-font-specification:aakar;letter-spacing:0px;word-spacing:0px;white-space:pre;shape-inside:url(#rect11);stroke-width:1px"
         id="path858" />
      <path
         d="m 176.0957,355.6496 v 1.5 h -4.73437 v 13.40625 q 0,1.78125 0.28125,2.625 0.5625,1.59375 2.10937,1.59375 1.03125,0 1.78125,-0.5625 0.42188,-0.32812 1.07813,-1.07812 l 0.60937,0.51562 q -0.84375,1.54688 -2.39062,2.57813 -1.5,0.98437 -3.09375,0.98437 -1.96875,0 -3.04688,-1.21875 -1.26562,-1.45312 -1.26562,-4.73437 V 357.1496 h -2.48438 l -0.1875,-0.32812 q 0,-0.28125 0.9375,-0.9375 0.60938,-0.42188 1.125,-0.9375 1.07813,-1.125 2.10938,-2.4375 0.79687,-1.03125 2.10937,-2.90625 0.32813,0 0.32813,0.60937 v 5.4375 z"
         style="font-size:48px;line-height:125%;font-family:aakar;-inkscape-font-specification:aakar;letter-spacing:0px;word-spacing:0px;white-space:pre;shape-inside:url(#rect11);stroke-width:1px"
         id="path860" />
      <path
         d="m 177.92383,376.74335 v -0.70312 q 2.29687,0 3,-0.70313 0.70312,-0.70312 0.70312,-3.375 v -10.875 q 0,-1.82812 -0.51562,-2.4375 -0.32813,-0.375 -1.125,-0.375 -0.46875,0 -0.75,0.0469 -0.23438,0 -1.125,0.14062 V 357.759 q 2.20312,-0.70313 3.60937,-1.21875 2.4375,-0.9375 3.65625,-1.35938 l 0.1875,0.14063 v 16.64062 q 0,2.48438 0.5625,3.28125 0.60938,0.79688 2.90625,0.79688 v 0.70312 z m 2.90625,-29.625 q 0,-0.84375 0.51562,-1.5 0.70313,-0.89062 1.82813,-0.89062 1.03125,0 1.73437,0.70312 0.70313,0.70313 0.70313,1.6875 0,1.03125 -0.70313,1.73438 -0.65625,0.65625 -1.73437,0.65625 -1.125,0 -1.73438,-0.79688 -0.60937,-0.79687 -0.60937,-1.59375 z"
         style="font-size:48px;line-height:125%;font-family:aakar;-inkscape-font-specification:aakar;letter-spacing:0px;word-spacing:0px;white-space:pre;shape-inside:url(#rect11);stroke-width:1px"
         id="path862" />
      <path
         d="m 208.08605,369.05585 0.75,0.32813 q -0.79688,2.4375 -2.57813,4.45312 -3,3.375 -7.35937,3.375 -3.98438,0 -6.375,-2.76562 -2.39063,-2.76563 -2.39063,-7.73438 0,-5.85937 3.375,-9 2.71875,-2.53125 6.1875,-2.53125 3.51563,0 5.57813,1.96875 2.29687,2.15625 2.67187,6.60938 H 193.3673 q 0,5.625 2.53125,8.20312 1.96875,2.01563 4.92187,2.01563 2.71875,0 4.78125,-1.78125 1.17188,-1.03125 2.48438,-3.14063 z m -14.57813,-6.79687 h 9.65625 q -0.375,-2.4375 -0.98437,-3.51563 -1.07813,-1.875 -3.51563,-1.875 -2.10937,0 -3.375,1.21875 -1.21875,1.17188 -1.78125,4.17188 z"
         style="font-size:48px;line-height:125%;font-family:aakar;-inkscape-font-specification:aakar;letter-spacing:0px;word-spacing:0px;white-space:pre;shape-inside:url(#rect11);stroke-width:1px"
         id="path864" />
      <path
         d="M 213.33758,372.80585 V 361.0871 q 0,-1.82812 -0.51563,-2.4375 -0.32812,-0.375 -1.125,-0.375 -0.46875,0 -0.75,0.0469 -0.28125,0 -0.84375,0.14062 v -0.75 q 3.70313,-1.21875 6.9375,-2.53125 l 0.23438,0.0937 v 4.17188 q 1.6875,-2.4375 2.95312,-3.32813 1.3125,-0.9375 2.71875,-0.9375 2.53125,0 2.53125,2.53125 0,0.89063 -0.51562,1.5 -0.46875,0.5625 -1.26563,0.5625 -0.89062,0 -1.82812,-0.79687 -0.89063,-0.84375 -1.40625,-0.84375 -0.84375,0 -2.01563,1.35937 -1.17187,1.35938 -1.17187,2.48438 v 10.54687 q 0,2.20313 1.07812,2.95313 0.84375,0.5625 2.90625,0.5625 v 0.70312 h -11.25 v -0.70312 q 2.10938,-0.375 2.625,-0.79688 0.70313,-0.5625 0.70313,-2.4375 z"
         style="font-size:48px;line-height:125%;font-family:aakar;-inkscape-font-specification:aakar;letter-spacing:0px;word-spacing:0px;white-space:pre;shape-inside:url(#rect11);stroke-width:1px"
         id="path866" />
    </g>
    <g
       id="g1093"
       transform="translate(0.52916667)">
      <path
         style="color:#000000;font-size:48px;line-height:125%;font-family:aakar;-inkscape-font-specification:aakar;letter-spacing:0px;word-spacing:0px;white-space:pre;shape-inside:url(#rect11);fill:#000000;fill-opacity:1;stroke-width:1px;-inkscape-stroke:none;paint-order:stroke markers fill"
         d="M 99.783203,346.60273 V 345.7121 H 112.1582 c 3.53125,0 6.39063,0.65625 8.57813,1.96875 2.46875,1.46875 3.70312,3.625 3.70312,6.46875 0,1.59375 -0.375,3.01563 -1.125,4.26563 -0.40625,0.65625 -0.98437,1.34375 -1.73437,2.0625 -1.03125,0.96875 -2.32813,1.67187 -3.89063,2.10937 -1.53125,0.4375 -3.54687,0.65625 -6.04687,0.65625 h -3.14063 v 8.39063 c 0,1.71875 0.28125,2.85937 0.84375,3.42187 0.59375,0.53125 1.78125,0.79688 3.5625,0.79688 v 0.89062 l -9.21657,-0.0268 c 0.0262,-3.74278 0.0101,-0.1759 0.0291,-5.59816 v -20.29687 c 0,-1.6875 -0.21875,-2.8125 -0.65625,-3.375 -0.4375,-0.5625 -1.53125,-0.84375 -3.281247,-0.84375 z m 8.718747,2.4375 v 12.32812 h 2.8125 c 1.40625,0 2.5,-0.10937 3.28125,-0.32812 3.15625,-0.875 4.73438,-3.14063 4.73438,-6.79688 0,-2.21875 -0.75,-3.90625 -2.25,-5.0625 -1.5,-1.15625 -3.71875,-1.73437 -6.65625,-1.73437 -0.8125,0 -1.34375,0.0781 -1.59375,0.23437 -0.21875,0.15625 -0.32813,0.60938 -0.32813,1.35938 z"
         id="path854"
         sodipodi:nodetypes="ccscscccscscccccsscscscssscs"
         transform="scale(0.26458333)" />
      <path
         style="fill:none;fill-rule:evenodd;stroke:#000000;stroke-width:0.253964px;stroke-linecap:butt;stroke-linejoin:miter;stroke-opacity:1"
         d="m 29.878363,98.504054 c -1.470272,0.06642 -1.295374,-0.651606 -1.295374,-0.651606 l -0.07385,0.652881 z"
         id="path852"
         sodipodi:nodetypes="cccc" />
    </g>
    <path
       style="opacity:1;fill:#000000;fill-opacity:1.19677e-07;stroke:#000000;stroke-width:0.2;stroke-linejoin:miter;stroke-miterlimit:4;stroke-dasharray:none;stroke-opacity:1;paint-order:stroke markers fill"
       id="path1115"
       sodipodi:type="arc"
       sodipodi:cx="29.556398"
       sodipodi:cy="95.574867"
       sodipodi:rx="6"
       sodipodi:ry="6"
       sodipodi:start="0.7558715"
       sodipodi:end="5.89594"
       sodipodi:arc-type="arc"
       d="m 33.922443,99.690406 a 6,6 0 0 1 -7.083856,1.233624 6,6 0 0 1 -3.180563,-6.448791 6,6 0 0 1 5.290622,-4.869512 6,6 0 0 1 6.16347,3.703305"
       sodipodi:open="true" />
  </g>
</svg>
