<?xml version="1.0" encoding="UTF-8"?>
<svg width="38.202mm" height="14.2mm" version="1.1" viewBox="0 0 38.202 14.2" xmlns="http://www.w3.org/2000/svg">
<g transform="translate(-22.456 -88.475)">
<g transform="scale(.26458)" stroke-width="1px" style="shape-inside:url(#rect11);white-space:pre" aria-label="Portier">
<path d="m136.58 355.18q4.7344 0 7.6406 2.9062t2.9062 7.9688q0 4.0312-2.5312 7.3125-2.9531 3.8438-7.875 3.8438-4.5 0-7.4062-3.1406-2.8594-3.1875-2.8594-8.0156 0-4.5469 2.6719-7.5938 2.8594-3.2812 7.4531-3.2812zm0.79687 20.719q2.2031 0 3.6562-1.6875 1.875-2.2031 1.875-6.7969 0-4.5469-1.7812-7.7344t-4.9219-3.1875q-2.3438 0-3.9375 1.9219-1.5938 1.875-1.5938 5.3906 0 4.0781 1.2188 7.3125 1.7812 4.7812 5.4844 4.7812z" style="shape-inside:url(#rect11);white-space:pre"/>
<path d="m151.98 372.81v-11.719q0-1.8281-0.51562-2.4375-0.32813-0.375-1.125-0.375-0.46875 0-0.75 0.0469-0.28125 0-0.84375 0.14062v-0.75q3.7031-1.2188 6.9375-2.5312l0.23437 0.0937v4.1719q1.6875-2.4375 2.9531-3.3281 1.3125-0.9375 2.7188-0.9375 2.5312 0 2.5312 2.5312 0 0.89063-0.51563 1.5-0.46875 0.5625-1.2656 0.5625-0.89063 0-1.8281-0.79687-0.89062-0.84375-1.4062-0.84375-0.84375 0-2.0156 1.3594-1.1719 1.3594-1.1719 2.4844v10.547q0 2.2031 1.0781 2.9531 0.84375 0.5625 2.9062 0.5625v0.70312h-11.25v-0.70312q2.1094-0.375 2.625-0.79688 0.70312-0.5625 0.70312-2.4375z" style="shape-inside:url(#rect11);white-space:pre"/>
<path d="m176.1 355.65v1.5h-4.7344v13.406q0 1.7812 0.28125 2.625 0.5625 1.5938 2.1094 1.5938 1.0312 0 1.7812-0.5625 0.42188-0.32812 1.0781-1.0781l0.60937 0.51562q-0.84375 1.5469-2.3906 2.5781-1.5 0.98437-3.0938 0.98437-1.9688 0-3.0469-1.2188-1.2656-1.4531-1.2656-4.7344v-14.109h-2.4844l-0.1875-0.32812q0-0.28125 0.9375-0.9375 0.60938-0.42188 1.125-0.9375 1.0781-1.125 2.1094-2.4375 0.79687-1.0312 2.1094-2.9062 0.32813 0 0.32813 0.60937v5.4375z" style="shape-inside:url(#rect11);white-space:pre"/>
<path d="m177.92 376.74v-0.70312q2.2969 0 3-0.70313 0.70312-0.70312 0.70312-3.375v-10.875q0-1.8281-0.51562-2.4375-0.32813-0.375-1.125-0.375-0.46875 0-0.75 0.0469-0.23438 0-1.125 0.14062v-0.70312q2.2031-0.70313 3.6094-1.2188 2.4375-0.9375 3.6562-1.3594l0.1875 0.14063v16.641q0 2.4844 0.5625 3.2812 0.60938 0.79688 2.9062 0.79688v0.70312zm2.9062-29.625q0-0.84375 0.51562-1.5 0.70313-0.89062 1.8281-0.89062 1.0312 0 1.7344 0.70312 0.70313 0.70313 0.70313 1.6875 0 1.0312-0.70313 1.7344-0.65625 0.65625-1.7344 0.65625-1.125 0-1.7344-0.79688-0.60937-0.79687-0.60937-1.5938z" style="shape-inside:url(#rect11);white-space:pre"/>
<path d="m208.09 369.06 0.75 0.32813q-0.79688 2.4375-2.5781 4.4531-3 3.375-7.3594 3.375-3.9844 0-6.375-2.7656-2.3906-2.7656-2.3906-7.7344 0-5.8594 3.375-9 2.7188-2.5312 6.1875-2.5312 3.5156 0 5.5781 1.9688 2.2969 2.1562 2.6719 6.6094h-14.578q0 5.625 2.5312 8.2031 1.9688 2.0156 4.9219 2.0156 2.7188 0 4.7812-1.7812 1.1719-1.0312 2.4844-3.1406zm-14.578-6.7969h9.6562q-0.375-2.4375-0.98437-3.5156-1.0781-1.875-3.5156-1.875-2.1094 0-3.375 1.2188-1.2188 1.1719-1.7812 4.1719z" style="shape-inside:url(#rect11);white-space:pre"/>
<path d="m213.34 372.81v-11.719q0-1.8281-0.51563-2.4375-0.32812-0.375-1.125-0.375-0.46875 0-0.75 0.0469-0.28125 0-0.84375 0.14062v-0.75q3.7031-1.2188 6.9375-2.5312l0.23438 0.0937v4.1719q1.6875-2.4375 2.9531-3.3281 1.3125-0.9375 2.7188-0.9375 2.5312 0 2.5312 2.5312 0 0.89063-0.51562 1.5-0.46875 0.5625-1.2656 0.5625-0.89062 0-1.8281-0.79687-0.89063-0.84375-1.4062-0.84375-0.84375 0-2.0156 1.3594-1.1719 1.3594-1.1719 2.4844v10.547q0 2.2031 1.0781 2.9531 0.84375 0.5625 2.9062 0.5625v0.70312h-11.25v-0.70312q2.1094-0.375 2.625-0.79688 0.70313-0.5625 0.70313-2.4375z" style="shape-inside:url(#rect11);white-space:pre"/>
</g>
<g transform="translate(.52917)">
<path transform="scale(.26458)" d="m99.783 346.6v-0.89063h12.375c3.5312 0 6.3906 0.65625 8.5781 1.9688 2.4688 1.4688 3.7031 3.625 3.7031 6.4688 0 1.5938-0.375 3.0156-1.125 4.2656-0.40625 0.65625-0.98437 1.3438-1.7344 2.0625-1.0312 0.96875-2.3281 1.6719-3.8906 2.1094-1.5312 0.4375-3.5469 0.65625-6.0469 0.65625h-3.1406v8.3906c0 1.7188 0.28125 2.8594 0.84375 3.4219 0.59375 0.53125 1.7812 0.79688 3.5625 0.79688v0.89062l-9.2166-0.0268c0.0262-3.7428 0.0101-0.1759 0.0291-5.5982v-20.297c0-1.6875-0.21875-2.8125-0.65625-3.375s-1.5312-0.84375-3.2812-0.84375zm8.7187 2.4375v12.328h2.8125c1.4062 0 2.5-0.10937 3.2812-0.32812 3.1562-0.875 4.7344-3.1406 4.7344-6.7969 0-2.2188-0.75-3.9062-2.25-5.0625s-3.7188-1.7344-6.6562-1.7344c-0.8125 0-1.3438 0.0781-1.5938 0.23437-0.21875 0.15625-0.32813 0.60938-0.32813 1.3594z" color="#000000" stroke-width="1px" style="-inkscape-stroke:none;paint-order:stroke markers fill;shape-inside:url(#rect11);white-space:pre"/>
<path d="m29.878 98.504c-1.4703 0.06642-1.2954-0.65161-1.2954-0.65161l-0.07385 0.65288z" fill="none" stroke="#000" stroke-width=".25396px"/>
</g>
<path d="m33.922 99.69a6 6 0 0 1-7.0839 1.2336 6 6 0 0 1-3.1806-6.4488 6 6 0 0 1 5.2906-4.8695 6 6 0 0 1 6.1635 3.7033" fill-opacity="1.1968e-7" stroke="#000" stroke-width=".2" style="paint-order:stroke markers fill"/>
</g>
</svg>
