<?xml version="1.0" encoding="UTF-8"?>
<svg width="32mm" height="32mm" version="1.1" viewBox="0 0 32 32" xmlns="http://www.w3.org/2000/svg">
<g transform="translate(-40.109 -83.389)">
<g transform="matrix(2.4589 0 0 2.4755 -16.337 -137.11)">
<path transform="scale(.26458)" d="m99.783 346.6v-0.89063h12.375c3.5312 0 6.3906 0.65625 8.5781 1.9688 2.4688 1.4688 3.7031 3.625 3.7031 6.4688 0 1.5938-0.375 3.0156-1.125 4.2656-0.40625 0.65625-0.98437 1.3438-1.7344 2.0625-1.0312 0.96875-2.3281 1.6719-3.8906 2.1094-1.5312 0.4375-3.5469 0.65625-6.0469 0.65625h-3.1406v8.3906c0 1.7188 0.28125 2.8594 0.84375 3.4219 0.59375 0.53125 1.7812 0.79688 3.5625 0.79688v0.89062l-9.2166-0.0268c0.0262-3.7428 0.0101-0.1759 0.0291-5.5982v-20.297c0-1.6875-0.21875-2.8125-0.65625-3.375s-1.5312-0.84375-3.2812-0.84375zm8.7187 2.4375v12.328h2.8125c1.4062 0 2.5-0.10937 3.2812-0.32812 3.1562-0.875 4.7344-3.1406 4.7344-6.7969 0-2.2188-0.75-3.9062-2.25-5.0625s-3.7188-1.7344-6.6562-1.7344c-0.8125 0-1.3438 0.0781-1.5938 0.23437-0.21875 0.15625-0.32813 0.60938-0.32813 1.3594z" color="#000000" stroke-width="1px" style="-inkscape-stroke:none;paint-order:stroke markers fill;shape-inside:url(#rect11);white-space:pre"/>
<path d="m29.878 98.504c-1.4703 0.06642-1.2954-0.65161-1.2954-0.65161l-0.07385 0.65288z" fill="none" stroke="#000" stroke-width=".25396px"/>
</g>
<ellipse cx="56.109" cy="99.489" rx="14.753" ry="14.853" fill-opacity="1.1968e-7" stroke="#000" stroke-width=".49344" style="paint-order:stroke markers fill"/>
</g>
</svg>
